<mxfile host="app.diagrams.net" modified="2023-05-25T07:24:14.827Z" agent="Mozilla/5.0 (Macintosh; Intel Mac OS X 10_15_7) AppleWebKit/537.36 (KHTML, like Gecko) Chrome/113.0.0.0 Safari/537.36" etag="oR9DdFHew-aWQ-eGgfig" version="21.3.2" type="github">
  <diagram name="第 1 页" id="ZEQ1epqjgivnmrrteKPm">
    <mxGraphModel dx="1196" dy="1680" grid="1" gridSize="10" guides="1" tooltips="1" connect="1" arrows="1" fold="1" page="1" pageScale="1" pageWidth="827" pageHeight="1169" math="0" shadow="0">
      <root>
        <mxCell id="0" />
        <mxCell id="1" parent="0" />
        <mxCell id="9zZcai4PzShoCzLJV-Cv-55" style="edgeStyle=orthogonalEdgeStyle;rounded=0;orthogonalLoop=1;jettySize=auto;html=1;exitX=1;exitY=0.5;exitDx=0;exitDy=0;entryX=0;entryY=0.5;entryDx=0;entryDy=0;strokeColor=#66B2FF;shadow=0;strokeWidth=2;" edge="1" parent="1" source="eP8do9VqJcl40edKN2bm-20" target="9zZcai4PzShoCzLJV-Cv-54">
          <mxGeometry relative="1" as="geometry" />
        </mxCell>
        <mxCell id="eP8do9VqJcl40edKN2bm-20" value="" style="rounded=0;whiteSpace=wrap;html=1;dashed=1;strokeColor=#707070;movable=1;resizable=1;rotatable=1;deletable=1;editable=1;locked=0;connectable=1;" parent="1" vertex="1">
          <mxGeometry x="520" y="-40" width="520" height="145" as="geometry" />
        </mxCell>
        <mxCell id="eP8do9VqJcl40edKN2bm-64" style="edgeStyle=orthogonalEdgeStyle;rounded=0;orthogonalLoop=1;jettySize=auto;html=1;exitX=1;exitY=0.5;exitDx=0;exitDy=0;entryX=0;entryY=0.5;entryDx=0;entryDy=0;strokeColor=#66B2FF;shadow=0;strokeWidth=2;" parent="1" source="eP8do9VqJcl40edKN2bm-4" target="eP8do9VqJcl40edKN2bm-6" edge="1">
          <mxGeometry relative="1" as="geometry" />
        </mxCell>
        <mxCell id="eP8do9VqJcl40edKN2bm-4" value="开始" style="rounded=1;whiteSpace=wrap;html=1;fillColor=#99CCFF;" parent="1" vertex="1">
          <mxGeometry x="80" y="10" width="120" height="60" as="geometry" />
        </mxCell>
        <mxCell id="eP8do9VqJcl40edKN2bm-65" style="edgeStyle=orthogonalEdgeStyle;rounded=0;orthogonalLoop=1;jettySize=auto;html=1;exitX=1;exitY=0.5;exitDx=0;exitDy=0;entryX=0;entryY=0.5;entryDx=0;entryDy=0;strokeColor=#66B2FF;shadow=0;strokeWidth=2;" parent="1" source="eP8do9VqJcl40edKN2bm-6" target="eP8do9VqJcl40edKN2bm-12" edge="1">
          <mxGeometry relative="1" as="geometry" />
        </mxCell>
        <mxCell id="eP8do9VqJcl40edKN2bm-6" value="计算司机月均收入" style="rounded=1;whiteSpace=wrap;html=1;" parent="1" vertex="1">
          <mxGeometry x="250" y="10" width="120" height="60" as="geometry" />
        </mxCell>
        <mxCell id="eP8do9VqJcl40edKN2bm-48" style="edgeStyle=orthogonalEdgeStyle;rounded=0;orthogonalLoop=1;jettySize=auto;html=1;exitX=1;exitY=0.5;exitDx=0;exitDy=0;entryX=0;entryY=0.5;entryDx=0;entryDy=0;strokeColor=#66B2FF;shadow=0;strokeWidth=2;" parent="1" source="eP8do9VqJcl40edKN2bm-12" target="eP8do9VqJcl40edKN2bm-36" edge="1">
          <mxGeometry relative="1" as="geometry" />
        </mxCell>
        <mxCell id="9zZcai4PzShoCzLJV-Cv-2" value="Y" style="edgeLabel;html=1;align=center;verticalAlign=middle;resizable=0;points=[];" vertex="1" connectable="0" parent="eP8do9VqJcl40edKN2bm-48">
          <mxGeometry x="-0.0727" y="2" relative="1" as="geometry">
            <mxPoint as="offset" />
          </mxGeometry>
        </mxCell>
        <mxCell id="9zZcai4PzShoCzLJV-Cv-33" style="edgeStyle=orthogonalEdgeStyle;rounded=0;orthogonalLoop=1;jettySize=auto;html=1;exitX=0.5;exitY=1;exitDx=0;exitDy=0;strokeColor=#FF0000;strokeWidth=2;" edge="1" parent="1" source="eP8do9VqJcl40edKN2bm-12" target="eP8do9VqJcl40edKN2bm-15">
          <mxGeometry relative="1" as="geometry" />
        </mxCell>
        <mxCell id="9zZcai4PzShoCzLJV-Cv-43" value="N" style="edgeLabel;html=1;align=center;verticalAlign=middle;resizable=0;points=[];" vertex="1" connectable="0" parent="9zZcai4PzShoCzLJV-Cv-33">
          <mxGeometry x="-0.15" y="1" relative="1" as="geometry">
            <mxPoint as="offset" />
          </mxGeometry>
        </mxCell>
        <mxCell id="eP8do9VqJcl40edKN2bm-12" value="租车司机" style="rhombus;whiteSpace=wrap;html=1;" parent="1" vertex="1">
          <mxGeometry x="420" width="80" height="80" as="geometry" />
        </mxCell>
        <mxCell id="eP8do9VqJcl40edKN2bm-15" value="结束" style="rounded=1;whiteSpace=wrap;html=1;fillColor=#FFD966;" parent="1" vertex="1">
          <mxGeometry x="400" y="255" width="120" height="60" as="geometry" />
        </mxCell>
        <mxCell id="eP8do9VqJcl40edKN2bm-22" value="&lt;b&gt;目标客户条件策略&lt;/b&gt;" style="text;html=1;strokeColor=none;fillColor=none;align=center;verticalAlign=middle;whiteSpace=wrap;rounded=0;movable=1;resizable=1;rotatable=1;deletable=1;editable=1;locked=0;connectable=1;" parent="1" vertex="1">
          <mxGeometry x="730" y="-30" width="120" height="30" as="geometry" />
        </mxCell>
        <mxCell id="9zZcai4PzShoCzLJV-Cv-38" style="edgeStyle=orthogonalEdgeStyle;rounded=0;orthogonalLoop=1;jettySize=auto;html=1;exitX=1;exitY=0.5;exitDx=0;exitDy=0;entryX=0;entryY=0.5;entryDx=0;entryDy=0;strokeColor=#66B2FF;shadow=0;strokeWidth=2;" edge="1" parent="1" source="eP8do9VqJcl40edKN2bm-32" target="eP8do9VqJcl40edKN2bm-37">
          <mxGeometry relative="1" as="geometry" />
        </mxCell>
        <mxCell id="eP8do9VqJcl40edKN2bm-32" value="司机收入评分" style="rounded=1;whiteSpace=wrap;html=1;" parent="1" vertex="1">
          <mxGeometry x="730" y="10" width="120" height="60" as="geometry" />
        </mxCell>
        <mxCell id="9zZcai4PzShoCzLJV-Cv-37" style="edgeStyle=orthogonalEdgeStyle;rounded=0;orthogonalLoop=1;jettySize=auto;html=1;exitX=1;exitY=0.5;exitDx=0;exitDy=0;entryX=0;entryY=0.5;entryDx=0;entryDy=0;strokeColor=#66B2FF;shadow=0;strokeWidth=2;" edge="1" parent="1" source="eP8do9VqJcl40edKN2bm-36" target="eP8do9VqJcl40edKN2bm-32">
          <mxGeometry relative="1" as="geometry" />
        </mxCell>
        <mxCell id="eP8do9VqJcl40edKN2bm-36" value="平均收入超过门店平均收入 [&lt;b&gt;is_target&lt;/b&gt;]" style="rounded=1;whiteSpace=wrap;html=1;" parent="1" vertex="1">
          <mxGeometry x="570" y="10" width="120" height="60" as="geometry" />
        </mxCell>
        <mxCell id="eP8do9VqJcl40edKN2bm-37" value="司机订单剩余时间少于门店预警阈值&lt;br&gt;[&lt;b&gt;is_target&lt;/b&gt;]" style="rounded=1;whiteSpace=wrap;html=1;" parent="1" vertex="1">
          <mxGeometry x="890" y="10" width="120" height="60" as="geometry" />
        </mxCell>
        <mxCell id="eP8do9VqJcl40edKN2bm-66" value="&lt;b&gt;评分任务&lt;/b&gt;" style="text;html=1;strokeColor=none;fillColor=none;align=center;verticalAlign=middle;whiteSpace=wrap;rounded=0;" parent="1" vertex="1">
          <mxGeometry x="110" y="-40" width="60" height="30" as="geometry" />
        </mxCell>
        <mxCell id="9zZcai4PzShoCzLJV-Cv-30" style="edgeStyle=orthogonalEdgeStyle;rounded=0;orthogonalLoop=1;jettySize=auto;html=1;exitX=0;exitY=0.5;exitDx=0;exitDy=0;strokeColor=#66B2FF;shadow=0;strokeWidth=2;" edge="1" parent="1" source="eP8do9VqJcl40edKN2bm-68" target="eP8do9VqJcl40edKN2bm-69">
          <mxGeometry relative="1" as="geometry" />
        </mxCell>
        <mxCell id="9zZcai4PzShoCzLJV-Cv-48" value="Y" style="edgeLabel;html=1;align=center;verticalAlign=middle;resizable=0;points=[];" vertex="1" connectable="0" parent="9zZcai4PzShoCzLJV-Cv-30">
          <mxGeometry x="-0.05" y="1" relative="1" as="geometry">
            <mxPoint as="offset" />
          </mxGeometry>
        </mxCell>
        <mxCell id="9zZcai4PzShoCzLJV-Cv-51" style="edgeStyle=orthogonalEdgeStyle;rounded=0;orthogonalLoop=1;jettySize=auto;html=1;exitX=0.5;exitY=0;exitDx=0;exitDy=0;entryX=0.5;entryY=0;entryDx=0;entryDy=0;strokeColor=#66B2FF;shadow=0;strokeWidth=2;" edge="1" parent="1" source="eP8do9VqJcl40edKN2bm-68" target="eP8do9VqJcl40edKN2bm-96">
          <mxGeometry relative="1" as="geometry" />
        </mxCell>
        <mxCell id="9zZcai4PzShoCzLJV-Cv-52" value="N" style="edgeLabel;html=1;align=center;verticalAlign=middle;resizable=0;points=[];" vertex="1" connectable="0" parent="9zZcai4PzShoCzLJV-Cv-51">
          <mxGeometry x="-0.0774" y="-3" relative="1" as="geometry">
            <mxPoint x="3" y="3" as="offset" />
          </mxGeometry>
        </mxCell>
        <mxCell id="eP8do9VqJcl40edKN2bm-68" value="是否通知过" style="rhombus;whiteSpace=wrap;html=1;" parent="1" vertex="1">
          <mxGeometry x="840" y="140" width="80" height="80" as="geometry" />
        </mxCell>
        <mxCell id="9zZcai4PzShoCzLJV-Cv-31" style="edgeStyle=orthogonalEdgeStyle;rounded=0;orthogonalLoop=1;jettySize=auto;html=1;exitX=0;exitY=0.5;exitDx=0;exitDy=0;entryX=1;entryY=0.5;entryDx=0;entryDy=0;strokeColor=#66B2FF;shadow=0;strokeWidth=2;" edge="1" parent="1" source="eP8do9VqJcl40edKN2bm-69" target="eP8do9VqJcl40edKN2bm-96">
          <mxGeometry relative="1" as="geometry" />
        </mxCell>
        <mxCell id="9zZcai4PzShoCzLJV-Cv-49" value="Y" style="edgeLabel;html=1;align=center;verticalAlign=middle;resizable=0;points=[];" vertex="1" connectable="0" parent="9zZcai4PzShoCzLJV-Cv-31">
          <mxGeometry x="-0.15" y="4" relative="1" as="geometry">
            <mxPoint y="-4" as="offset" />
          </mxGeometry>
        </mxCell>
        <mxCell id="9zZcai4PzShoCzLJV-Cv-34" style="edgeStyle=orthogonalEdgeStyle;rounded=0;orthogonalLoop=1;jettySize=auto;html=1;exitX=0.5;exitY=1;exitDx=0;exitDy=0;entryX=1;entryY=0.5;entryDx=0;entryDy=0;strokeColor=#FF0000;strokeWidth=2;" edge="1" parent="1" source="eP8do9VqJcl40edKN2bm-69" target="eP8do9VqJcl40edKN2bm-15">
          <mxGeometry relative="1" as="geometry" />
        </mxCell>
        <mxCell id="9zZcai4PzShoCzLJV-Cv-44" value="N" style="edgeLabel;html=1;align=center;verticalAlign=middle;resizable=0;points=[];" vertex="1" connectable="0" parent="9zZcai4PzShoCzLJV-Cv-34">
          <mxGeometry x="-0.7968" y="2" relative="1" as="geometry">
            <mxPoint x="-2" y="-7" as="offset" />
          </mxGeometry>
        </mxCell>
        <mxCell id="eP8do9VqJcl40edKN2bm-69" value="超过二次通知间隔时间配置" style="rhombus;whiteSpace=wrap;html=1;" parent="1" vertex="1">
          <mxGeometry x="720" y="140" width="80" height="80" as="geometry" />
        </mxCell>
        <mxCell id="9zZcai4PzShoCzLJV-Cv-32" style="rounded=0;orthogonalLoop=1;jettySize=auto;html=1;exitX=0;exitY=0.5;exitDx=0;exitDy=0;entryX=1;entryY=0.5;entryDx=0;entryDy=0;strokeColor=#66B2FF;shadow=0;strokeWidth=2;" edge="1" parent="1" source="eP8do9VqJcl40edKN2bm-96" target="eP8do9VqJcl40edKN2bm-15">
          <mxGeometry relative="1" as="geometry" />
        </mxCell>
        <mxCell id="eP8do9VqJcl40edKN2bm-96" value="推送飞书认领通知到订单销售" style="rounded=1;whiteSpace=wrap;html=1;" parent="1" vertex="1">
          <mxGeometry x="540" y="150" width="120" height="60" as="geometry" />
        </mxCell>
        <mxCell id="9zZcai4PzShoCzLJV-Cv-25" style="edgeStyle=orthogonalEdgeStyle;rounded=0;orthogonalLoop=1;jettySize=auto;html=1;exitX=0;exitY=0.5;exitDx=0;exitDy=0;entryX=1;entryY=0.5;entryDx=0;entryDy=0;strokeColor=#66B2FF;shadow=0;strokeWidth=2;" edge="1" parent="1" source="9zZcai4PzShoCzLJV-Cv-3" target="9zZcai4PzShoCzLJV-Cv-6">
          <mxGeometry relative="1" as="geometry" />
        </mxCell>
        <mxCell id="9zZcai4PzShoCzLJV-Cv-3" value="记录通知信息" style="whiteSpace=wrap;html=1;" vertex="1" parent="1">
          <mxGeometry x="1086.5" y="150" width="120" height="60" as="geometry" />
        </mxCell>
        <mxCell id="9zZcai4PzShoCzLJV-Cv-27" style="edgeStyle=orthogonalEdgeStyle;rounded=0;orthogonalLoop=1;jettySize=auto;html=1;exitX=0;exitY=0.5;exitDx=0;exitDy=0;entryX=1;entryY=0.5;entryDx=0;entryDy=0;strokeColor=#66B2FF;shadow=0;strokeWidth=2;" edge="1" parent="1" source="9zZcai4PzShoCzLJV-Cv-6" target="eP8do9VqJcl40edKN2bm-68">
          <mxGeometry relative="1" as="geometry" />
        </mxCell>
        <mxCell id="9zZcai4PzShoCzLJV-Cv-47" value="Y" style="edgeLabel;html=1;align=center;verticalAlign=middle;resizable=0;points=[];" vertex="1" connectable="0" parent="9zZcai4PzShoCzLJV-Cv-27">
          <mxGeometry x="-0.2055" y="-2" relative="1" as="geometry">
            <mxPoint as="offset" />
          </mxGeometry>
        </mxCell>
        <mxCell id="9zZcai4PzShoCzLJV-Cv-36" style="edgeStyle=orthogonalEdgeStyle;rounded=0;orthogonalLoop=1;jettySize=auto;html=1;exitX=0.5;exitY=1;exitDx=0;exitDy=0;entryX=1;entryY=0.5;entryDx=0;entryDy=0;strokeColor=#FF0000;strokeWidth=2;" edge="1" parent="1" source="9zZcai4PzShoCzLJV-Cv-6" target="eP8do9VqJcl40edKN2bm-15">
          <mxGeometry relative="1" as="geometry" />
        </mxCell>
        <mxCell id="9zZcai4PzShoCzLJV-Cv-46" value="N" style="edgeLabel;html=1;align=center;verticalAlign=middle;resizable=0;points=[];" vertex="1" connectable="0" parent="9zZcai4PzShoCzLJV-Cv-36">
          <mxGeometry x="-0.884" y="4" relative="1" as="geometry">
            <mxPoint x="-4" y="-7" as="offset" />
          </mxGeometry>
        </mxCell>
        <mxCell id="9zZcai4PzShoCzLJV-Cv-6" value="所属门店允许通知" style="rhombus;whiteSpace=wrap;html=1;" vertex="1" parent="1">
          <mxGeometry x="966.5" y="140" width="80" height="80" as="geometry" />
        </mxCell>
        <mxCell id="9zZcai4PzShoCzLJV-Cv-56" style="edgeStyle=orthogonalEdgeStyle;rounded=0;orthogonalLoop=1;jettySize=auto;html=1;exitX=0.5;exitY=1;exitDx=0;exitDy=0;entryX=0.5;entryY=0;entryDx=0;entryDy=0;strokeColor=#66B2FF;strokeWidth=2;" edge="1" parent="1" source="9zZcai4PzShoCzLJV-Cv-54" target="9zZcai4PzShoCzLJV-Cv-3">
          <mxGeometry relative="1" as="geometry" />
        </mxCell>
        <mxCell id="9zZcai4PzShoCzLJV-Cv-59" value="Y" style="edgeLabel;html=1;align=center;verticalAlign=middle;resizable=0;points=[];" vertex="1" connectable="0" parent="9zZcai4PzShoCzLJV-Cv-56">
          <mxGeometry x="-0.1871" y="1" relative="1" as="geometry">
            <mxPoint y="1" as="offset" />
          </mxGeometry>
        </mxCell>
        <mxCell id="9zZcai4PzShoCzLJV-Cv-57" style="edgeStyle=orthogonalEdgeStyle;rounded=0;orthogonalLoop=1;jettySize=auto;html=1;exitX=1;exitY=0.5;exitDx=0;exitDy=0;entryX=1;entryY=0.5;entryDx=0;entryDy=0;strokeColor=#FF3333;strokeWidth=2;" edge="1" parent="1" source="9zZcai4PzShoCzLJV-Cv-54" target="eP8do9VqJcl40edKN2bm-15">
          <mxGeometry relative="1" as="geometry">
            <Array as="points">
              <mxPoint x="1240" y="33" />
              <mxPoint x="1240" y="285" />
            </Array>
          </mxGeometry>
        </mxCell>
        <mxCell id="9zZcai4PzShoCzLJV-Cv-58" value="N" style="edgeLabel;html=1;align=center;verticalAlign=middle;resizable=0;points=[];" vertex="1" connectable="0" parent="9zZcai4PzShoCzLJV-Cv-57">
          <mxGeometry x="-0.6374" y="2" relative="1" as="geometry">
            <mxPoint as="offset" />
          </mxGeometry>
        </mxCell>
        <mxCell id="9zZcai4PzShoCzLJV-Cv-54" value="潜在目标客户" style="rhombus;whiteSpace=wrap;html=1;" vertex="1" parent="1">
          <mxGeometry x="1106.5" y="-7.5" width="80" height="80" as="geometry" />
        </mxCell>
      </root>
    </mxGraphModel>
  </diagram>
</mxfile>
